HIERARCHY
ROOT root
{
	OFFSET 0.000000 0.000000 0.000000
	CHANNELS 6 Xposition Yposition Zposition Zrotation Yrotation Xrotation
	JOINT lhip
	{
		OFFSET 0.058581 -0.082280 -0.017664
		CHANNELS 3 Zrotation Yrotation Xrotation
		JOINT lknee
		{
			OFFSET 0.043451 -0.386469 0.008037
			CHANNELS 3 Zrotation Yrotation Xrotation
			JOINT lankle
			{
				OFFSET -0.014790 -0.426874 -0.037428
				CHANNELS 3 Zrotation Yrotation Xrotation
				JOINT ltoe
				{
					OFFSET 0.041054 -0.060286 0.122042
					CHANNELS 3 Zrotation Yrotation Xrotation
					End Site
					{
						OFFSET 0.000000 0.000000 0.000000
					}
				}
			}
		}
	}
	JOINT rhip
	{
		OFFSET -0.060310 -0.090513 -0.013543
		CHANNELS 3 Zrotation Yrotation Xrotation
		JOINT rknee
		{
			OFFSET -0.043257 -0.383688 -0.004843
			CHANNELS 3 Zrotation Yrotation Xrotation
			JOINT rankle
			{
				OFFSET 0.019056 -0.420046 -0.034562
				CHANNELS 3 Zrotation Yrotation Xrotation
				JOINT rtoe
				{
					OFFSET -0.034840 -0.062106 0.130323
					CHANNELS 3 Zrotation Yrotation Xrotation
					End Site
					{
						OFFSET 0.000000 0.000000 0.000000
					}
				}
			}
		}
	}
	JOINT lowerback
	{
		OFFSET 0.004439 0.124404 -0.038385
		CHANNELS 3 Zrotation Yrotation Xrotation
		JOINT upperback
		{
			OFFSET 0.004488 0.137956 0.026820
			CHANNELS 3 Zrotation Yrotation Xrotation
			JOINT chest
			{
				OFFSET -0.002265 0.056032 0.002855
				CHANNELS 3 Zrotation Yrotation Xrotation
				JOINT lowerneck
				{
					OFFSET -0.013390 0.211636 -0.033468
					CHANNELS 3 Zrotation Yrotation Xrotation
					JOINT upperneck
					{
						OFFSET 0.010113 0.088937 0.050410
						CHANNELS 3 Zrotation Yrotation Xrotation
						End Site
						{
							OFFSET 0.000000 0.000000 0.000000
						}
					}
				}
				JOINT lclavicle
				{
					OFFSET 0.071702 0.114000 -0.018898
					CHANNELS 3 Zrotation Yrotation Xrotation
					JOINT lshoulder
					{
						OFFSET 0.122921 0.045205 -0.019046
						CHANNELS 3 Zrotation Yrotation Xrotation
						JOINT lelbow
						{
							OFFSET 0.255332 -0.015649 -0.022946
							CHANNELS 3 Zrotation Yrotation Xrotation
							JOINT lwrist
							{
								OFFSET 0.265709 0.012698 -0.007375
								CHANNELS 3 Zrotation Yrotation Xrotation
								End Site
								{
									OFFSET 0.000000 0.000000 0.000000
								}
							}
						}
					}
				}
				JOINT rclavicle
				{
					OFFSET -0.082954 0.112472 -0.023707
					CHANNELS 3 Zrotation Yrotation Xrotation
					JOINT rshoulder
					{
						OFFSET -0.113228 0.046853 -0.008472
						CHANNELS 3 Zrotation Yrotation Xrotation
						JOINT relbow
						{
							OFFSET -0.260127 -0.014369 -0.031269
							CHANNELS 3 Zrotation Yrotation Xrotation
							JOINT rwrist
							{
								OFFSET -0.269108 0.006794 -0.006027
								CHANNELS 3 Zrotation Yrotation Xrotation
								End Site
								{
									OFFSET 0.000000 0.000000 0.000000
								}
							}
						}
					}
				}
			}
		}
	}
}
MOTION
Frames: 8
Frame Time: 0.033333
-0.382473 0.554779 0.995939 35.310129 -0.024389 88.078203 5.400635 3.753396 0.041331 -1.583826 1.438133 0.663040 1.912429 9.470657 -5.458992 0.000000 -0.000000 0.000000 -3.129203 -9.146148 3.443499 0.035068 -12.585184 2.372342 1.537264 -12.111585 -9.181985 0.000000 -0.000000 0.000000 2.311035 1.970220 7.422549 -3.117071 -2.889863 0.926331 0.070666 3.300741 -0.588670 -0.072859 -13.999069 -3.247336 6.120103 -1.831734 -16.637621 -19.880372 -18.548132 -2.543466 -68.116070 7.244362 12.227309 20.324115 -22.376714 -9.520515 8.579894 -9.502067 -2.917460 5.268564 30.068914 -5.816103 6.709198 45.967383 -30.172409 -130.104553 63.286349 -122.539283 -7.616727 25.881028 10.456873 
-0.382560 0.555165 0.996023 35.307607 0.008591 88.050658 5.411822 3.783269 -0.022711 -1.555391 1.325458 0.835963 1.872133 9.541703 -5.554807 0.000000 -0.000000 0.000000 -3.078687 -9.131371 3.474651 0.007380 -12.519655 2.326063 1.537110 -12.181468 -9.187049 0.000000 -0.000000 0.000000 2.303325 2.006419 7.487938 -3.136501 -2.847531 0.648023 0.123070 3.323983 -0.514352 0.101830 -14.355121 -3.268050 6.424587 -1.867240 -17.149577 -19.955692 -18.653398 -2.514357 -68.172496 7.369968 12.094675 19.961501 -21.621974 -9.406500 9.378492 -9.512240 -3.175431 4.940537 30.191065 -5.983282 6.171605 45.871429 -30.772292 -129.911187 63.294150 -122.427378 -8.741087 26.421139 10.070676 
-0.382604 0.555493 0.996190 35.323150 0.012570 88.012554 5.397660 3.744052 -0.011241 -1.548080 1.302319 0.893337 1.843253 9.579221 -5.603217 0.000000 -0.000000 0.000000 -3.082475 -9.124721 3.586581 0.037910 -12.511809 2.158811 1.541546 -12.183939 -9.118697 0.000000 -0.000000 0.000000 2.333854 2.045859 7.502025 -3.220885 -2.826625 0.534731 0.082336 3.277981 -0.464830 0.036541 -14.149830 -3.511368 6.360894 -1.684831 -17.226979 -19.959436 -18.703918 -2.628517 -68.190630 7.563618 12.015100 19.752133 -21.071588 -9.597923 9.844666 -9.498109 -3.230163 4.790676 30.277377 -6.255074 5.977145 45.938025 -30.871046 -129.819164 63.286740 -122.514256 -9.533319 26.795159 10.029643 
-0.382660 0.555840 0.996202 35.381418 0.028463 88.000040 5.420706 3.810680 -0.053296 -1.579354 1.306905 0.960757 1.811315 9.474746 -5.607358 0.000000 -0.000000 0.000000 -3.067487 -9.126660 3.674066 0.039217 -12.586455 2.020203 1.543022 -12.170122 -9.083853 0.000000 -0.000000 0.000000 2.307741 2.071157 7.438888 -3.253279 -2.817861 0.477955 0.076290 3.251084 -0.527869 0.099616 -14.112664 -3.338050 6.514898 -1.666274 -17.575130 -19.887885 -18.757335 -2.613721 -68.375584 7.673564 11.946780 19.724809 -20.537262 -9.626776 9.622082 -9.534889 -3.333918 4.640968 30.367409 -6.276432 5.977760 46.032448 -30.992607 -129.480657 63.179340 -122.024148 -9.779221 27.038666 10.072027 
-0.382701 0.556037 0.996168 35.403141 0.048576 87.961698 5.432148 3.813494 -0.002598 -1.554504 1.243016 0.922918 1.848197 9.464662 -5.610469 0.000000 -0.000000 0.000000 -3.051347 -9.140090 3.794140 0.072680 -12.586101 1.862611 1.559826 -12.130083 -9.052078 0.000000 -0.000000 0.000000 2.285874 2.085728 7.387991 -3.259448 -2.831199 0.483147 0.085651 3.228414 -0.643712 -0.105151 -13.970267 -3.186710 6.358977 -1.435378 -17.685802 -19.947377 -18.685760 -2.563427 -68.340984 7.773454 11.878918 19.642452 -20.283714 -9.624076 9.406526 -9.560117 -3.515689 4.613128 30.425020 -6.160803 5.932441 46.233835 -31.074049 -129.096375 63.115698 -121.497957 -9.656132 27.077423 9.867714 
-0.382955 0.556318 0.996179 35.479825 0.054712 87.930491 5.457493 3.768844 0.020352 -1.579548 1.152599 0.874445 1.852805 9.454183 -5.584542 0.000000 -0.000000 0.000000 -3.006137 -9.173975 3.914234 0.050962 -12.591941 1.660322 1.506936 -12.184155 -8.992274 0.000000 -0.000000 0.000000 2.212791 2.109595 7.364250 -3.264387 -2.853336 0.458647 0.074637 3.222661 -0.635868 -0.236030 -13.572703 -3.457594 6.155724 -1.089784 -17.401286 -19.892460 -18.638672 -2.710677 -68.337052 7.774069 11.927539 19.521892 -20.085821 -9.665285 9.709256 -9.436150 -3.584922 4.756673 30.433916 -6.218572 5.833042 46.320395 -30.966567 -129.005589 63.137458 -121.522296 -9.868601 27.140651 9.819805 
-0.383197 0.556645 0.996138 35.555552 0.074737 87.886975 5.488627 3.767484 0.037257 -1.594816 1.116575 0.846227 1.845076 9.409681 -5.571519 0.000000 -0.000000 0.000000 -2.977966 -9.204042 4.031320 0.066324 -12.614507 1.497042 1.485984 -12.163476 -8.914223 0.000000 -0.000000 0.000000 2.145546 2.162284 7.324582 -3.259621 -2.862022 0.470885 0.085531 3.211064 -0.652180 -0.311588 -13.364214 -3.403053 6.190604 -0.876325 -17.385536 -19.969285 -18.669679 -2.719823 -68.268805 7.819867 11.936690 19.581977 -20.166396 -9.736213 9.617600 -9.520884 -3.710001 4.854630 30.485464 -6.240861 5.821028 46.270405 -30.881082 -128.957947 63.143510 -121.452909 -9.954922 27.290473 9.903650 
-0.383451 0.556892 0.996052 35.604340 0.093746 87.832294 5.517787 3.799308 0.055057 -1.605870 1.158226 0.853111 1.843663 9.355320 -5.567058 0.000000 -0.000000 0.000000 -2.963585 -9.217459 4.117697 0.095808 -12.675807 1.432926 1.432651 -12.140081 -8.956883 0.000000 -0.000000 0.000000 2.097237 2.203991 7.256817 -3.279052 -2.837753 0.552387 0.076798 3.220751 -0.684118 -0.260556 -13.227960 -3.233472 6.318098 -0.884229 -17.587737 -19.932320 -18.636838 -2.765081 -68.269905 7.753192 11.952609 19.670759 -20.149348 -9.775397 9.261986 -9.663092 -3.637787 4.862658 30.482137 -6.251496 5.973679 46.313644 -30.795599 -128.840769 63.021592 -121.159053 -9.707668 27.377417 9.990340 
